<svg width="60" height="61" viewBox="0 0 60 61" fill="none" xmlns="http://www.w3.org/2000/svg">
<path opacity="0.3" fill-rule="evenodd" clip-rule="evenodd" d="M30 60.5C46.5685 60.5 60 47.0685 60 30.5C60 13.9315 46.5685 0.5 30 0.5C13.4315 0.5 0 13.9315 0 30.5C0 47.0685 13.4315 60.5 30 60.5Z" fill="#FF9066"/>
<path opacity="0.78" fill-rule="evenodd" clip-rule="evenodd" d="M28.6312 24.3088C28.6512 24.0483 28.8684 23.8472 29.1297 23.8472H29.5475C29.8044 23.8472 30.0195 24.0418 30.045 24.2974L30.6667 30.5138L35.0814 33.0365C35.2372 33.1256 35.3333 33.2912 35.3333 33.4707V33.8592C35.3333 34.1889 35.0199 34.4283 34.7018 34.3416L28.3987 32.6226C28.1673 32.5595 28.0133 32.341 28.0317 32.1018L28.6312 24.3088Z" fill="#FF9066"/>
<path opacity="0.901274" fill-rule="evenodd" clip-rule="evenodd" d="M22.7218 15.4843C22.4577 15.1696 21.9477 15.2901 21.8524 15.6897L20.2189 22.5379C20.1412 22.8635 20.3993 23.172 20.7336 23.1531L27.7783 22.7539C28.1892 22.7306 28.3976 22.2485 28.133 21.9333L26.3316 19.7864C27.4965 19.3884 28.7317 19.1805 30 19.1805C36.2592 19.1805 41.3333 24.2546 41.3333 30.5138C41.3333 36.773 36.2592 41.8471 30 41.8471C23.7408 41.8471 18.6667 36.773 18.6667 30.5138C18.6667 29.463 18.809 28.4339 19.0864 27.4448L16.5188 26.7245C16.1808 27.9297 16 29.2006 16 30.5138C16 38.2458 22.268 44.5138 30 44.5138C37.732 44.5138 44 38.2458 44 30.5138C44 22.7818 37.732 16.5138 30 16.5138C28.0551 16.5138 26.2029 16.9104 24.5197 17.6271L22.7218 15.4843Z" fill="#FF9066"/>
</svg>
