<svg width="60" height="61" viewBox="0 0 60 61" fill="none" xmlns="http://www.w3.org/2000/svg">
<path opacity="0.21" fill-rule="evenodd" clip-rule="evenodd" d="M30 60.5C46.5685 60.5 60 47.0685 60 30.5C60 13.9315 46.5685 0.5 30 0.5C13.4315 0.5 0 13.9315 0 30.5C0 47.0685 13.4315 60.5 30 60.5Z" fill="#8280FF"/>
<rect opacity="0.01" x="18" y="18" width="24" height="24" fill="black"/>
<path opacity="0.5" fill-rule="evenodd" clip-rule="evenodd" d="M39.1699 28.33H32.4999C32.0415 28.33 31.6699 27.9584 31.6699 27.5V20.83C31.6699 20.3716 32.0415 20 32.4999 20C36.6421 20 39.9999 23.3579 39.9999 27.5C39.9999 27.9584 39.6283 28.33 39.1699 28.33ZM38.2699 26.67C37.9014 24.1098 35.8901 22.0985 33.3299 21.73V26.67H38.2699Z" fill="#27357A"/>
<path d="M39.0801 30H30.9301C30.6888 30 30.4573 29.9041 30.2866 29.7334C30.116 29.5628 30.0201 29.3313 30.0201 29.09V20.92C30.0217 20.6576 29.9111 20.4071 29.7163 20.2313C29.5215 20.0556 29.2609 19.9714 29.0001 20C23.7801 20.5542 19.8772 25.0505 20.0622 30.2966C20.2473 35.5427 24.4573 39.7528 29.7035 39.9378C34.9496 40.1229 39.4458 36.22 40.0001 31C40.0226 30.7424 39.9357 30.4873 39.7606 30.2971C39.5856 30.1068 39.3386 29.999 39.0801 30Z" fill="#27357A"/>
</svg>
