<svg width="60" height="61" viewBox="0 0 60 61" fill="none" xmlns="http://www.w3.org/2000/svg">
<path opacity="0.21" fill-rule="evenodd" clip-rule="evenodd" d="M30 60.5C46.5685 60.5 60 47.0685 60 30.5C60 13.9315 46.5685 0.5 30 0.5C13.4315 0.5 0 13.9315 0 30.5C0 47.0685 13.4315 60.5 30 60.5Z" fill="#FEC53D"/>
<path fill-rule="evenodd" clip-rule="evenodd" d="M15 24.8164L27.9005 32.2645C28.0394 32.3447 28.1851 32.4026 28.3333 32.4394V46.8846L15.9201 39.5385C15.3498 39.201 15 38.5875 15 37.9248V24.8164ZM45 24.6184V37.9248C45 38.5875 44.6502 39.201 44.0799 39.5385L31.6667 46.8846V32.3129C31.6969 32.2978 31.7269 32.2816 31.7566 32.2645L45 24.6184Z" fill="#FEC53D"/>
<path opacity="0.499209" fill-rule="evenodd" clip-rule="evenodd" d="M15.4053 21.2014C15.5628 21.0024 15.7617 20.8343 15.9936 20.7108L29.1186 13.7201C29.6696 13.4266 30.3305 13.4266 30.8815 13.7201L44.0065 20.7108C44.1852 20.806 44.3444 20.9277 44.4801 21.0697L30.0899 29.3778C29.9953 29.4325 29.9081 29.495 29.8286 29.564C29.7491 29.495 29.6618 29.4325 29.5672 29.3778L15.4053 21.2014Z" fill="#FEC53D"/>
</svg>
